<svg xmlns="http://www.w3.org/2000/svg" width="64" height="64" viewBox="0 0 64 64" fill="none">
  <defs>
    <linearGradient id="broth" x1="12" y1="30" x2="52" y2="56" gradientUnits="userSpaceOnUse">
      <stop stop-color="#FFD56A"/>
      <stop offset="1" stop-color="#F59E0B"/>
    </linearGradient>
    <linearGradient id="bowl" x1="12" y1="34" x2="52" y2="58" gradientUnits="userSpaceOnUse">
      <stop stop-color="#FFFFFF"/>
      <stop offset="1" stop-color="#E5E7EB"/>
    </linearGradient>
  </defs>
  <rect width="64" height="64" rx="16" fill="#FFF7ED"/>
  <path d="M18 18C18 12 22 8 26 8C30 8 34 12 34 18" stroke="#FBBF24" stroke-width="3" stroke-linecap="round" opacity="0.9"/>
  <path d="M30 18C30 12 34 8 38 8C42 8 46 12 46 18" stroke="#FB923C" stroke-width="3" stroke-linecap="round" opacity="0.9"/>
  <path d="M24 22C24 18 27 15 30 15C33 15 36 18 36 22" stroke="#FDBA74" stroke-width="3" stroke-linecap="round" opacity="0.9"/>
  <ellipse cx="32" cy="35" rx="19" ry="11" fill="url(#broth)"/>
  <path d="M14 34H50C50 47 42 56 32 56C22 56 14 47 14 34Z" fill="url(#bowl)" stroke="#D1D5DB" stroke-width="2"/>
  <path d="M19 31C24 35 40 35 45 31" stroke="#FFF3C4" stroke-width="2.4" stroke-linecap="round" opacity="0.95"/>
  <path d="M22 36C26 39 38 39 42 36" stroke="#FFF7DA" stroke-width="2" stroke-linecap="round" opacity="0.9"/>
  <path d="M24 27C28 24 36 24 40 27" stroke="#F59E0B" stroke-width="2" stroke-linecap="round" opacity="0.7"/>
  <circle cx="24" cy="33" r="2" fill="#22C55E"/>
  <circle cx="39" cy="34" r="2.2" fill="#EF4444"/>
  <circle cx="33" cy="30" r="1.8" fill="#16A34A"/>
</svg>
